<svg xmlns="http://www.w3.org/2000/svg" xmlns:xlink="http://www.w3.org/1999/xlink" viewBox="0 0 439.15 410.2"><defs><style>.cls-1{stroke:#fff;stroke-miterlimit:10;fill:url(#linear-gradient);}.cls-2{fill:url(#linear-gradient-2);}.cls-3{fill:url(#linear-gradient-3);}.cls-4{fill:#1a89ba;}</style><linearGradient id="linear-gradient" x1="200.43" y1="157.13" x2="-57.24" y2="409.67" gradientUnits="userSpaceOnUse"><stop offset="0.38" stop-color="#3ae1a4"/><stop offset="0.45" stop-color="#33cfa9"/><stop offset="0.63" stop-color="#26a9b2"/><stop offset="0.78" stop-color="#1d92b8"/><stop offset="0.87" stop-color="#1a89ba"/></linearGradient><linearGradient id="linear-gradient-2" x1="205.83" y1="308.2" x2="180.29" y2="-49.72" gradientUnits="userSpaceOnUse"><stop offset="0.59" stop-color="#353b4c"/><stop offset="0.72" stop-color="#353c4e"/><stop offset="0.77" stop-color="#334155"/><stop offset="0.8" stop-color="#304a60"/><stop offset="0.83" stop-color="#2c5571"/><stop offset="0.85" stop-color="#266587"/><stop offset="0.87" stop-color="#2078a2"/><stop offset="0.89" stop-color="#1a89ba"/></linearGradient><linearGradient id="linear-gradient-3" x1="315.25" y1="151.04" x2="165.58" y2="311.05" gradientUnits="userSpaceOnUse"><stop offset="0.26" stop-color="#3ae1a4"/><stop offset="0.44" stop-color="#31c8aa"/><stop offset="0.81" stop-color="#209bb6"/><stop offset="1" stop-color="#1a89ba"/></linearGradient></defs><g id="Layer_2" data-name="Layer 2"><g id="Layer_1-2" data-name="Layer 1"><path class="cls-1" d="M204.06,122.64s18.13,24.79-23.47,48.68c-38.32,25.83-58.18,41.06-71,51C12.06,286.73,4.24,329.38,4.24,329.38s-13.7,34.44,11.35,21.13c18.39-10.17,22.3-44.61,99-99.78,81-58.3,81.09-58.3,94.74-68.09C234.25,167.77,259.76,126.29,204.06,122.64Z"/><path class="cls-2" d="M66.85,327.82c-26.56,36.58-47.74,54-12.53,58.3C103.63,391.9,88,401,118.94,348.21c0,0,31.25-48.18,76.25-80.26,38.74-33.66,48.93-39.41,93.13-77.87,43.05-40.7-3.52-65.74-3.52-65.74s-11.89-11-65-29c-37-12.5-38-48.91-19.57-26.22,24.26,19.57,68.48,29,68.48,29s117,35.61,35.22,107.22c-78.66,68.09-142.83,117.39-169.83,169-12.91,21.52-16.43,20.74-.78,27,36,13.7,39.13,12.91,48.91-12.91,18.39-29,32.09-54.78,135-143.22C421,160.34,342.08,114.56,333,108.69c-13.93-9-27.27-13.54-79.89-25-29.1-6.36-46-18.93-52.24-27-14.49-25-2-17.8,5.28-13.69,14.48,2.34,35.61,1.17-5.87-28.57-21.52-19.56-10.17-18.78-32.48,0-21.91,17.22-33.85,37.76-2,27.2,9.91-2.15,15.91-13.37,8.8,15.45,0,0-3.59,25,17.28,33.79,19,21.52,120.18,31.82,50.33,94.93C227,199.68,121.09,268.22,66.85,327.82Z"/><path class="cls-3" d="M269.28,68.9c20.36,4,43.1,7.59,63.6,16.18,27.08,11.35,50.24,30,58.75,55.56a90.12,90.12,0,0,1,3.72,39.19c-2.93,20.76-15.52,43.39-50.68,76.12-32.12,29.52-89.1,82.21-119.48,117.13-15.26,17.54-16.17,25-19.3,34.17,28.17-1.56,37-14.09,65.22-43.82,24.19-24.53,49.95-50.87,62.34-59,5.74-10.44,88.7-65,90.53-124.44,7.76-52.21-28.72-117.72-119.22-131.21,0,0-92.61-14.61-51.52,13.17C257,64.55,260.41,66,269.28,68.9Z"/><circle class="cls-4" cx="414.32" cy="39.03" r="24.83"/></g></g></svg>